# xmcd
#
# Track frame offsets:
#	150
#	12429
#	23099
#	44881
#	68182
#	90415
#	106123
#	118075
#	136853
#	155280
#	171011
#	189600
#	202770
#	219981
#	253838
#	272169
#
# Disc length: 3905 seconds
#
# Revision: 1
# Processed by: cddbd v1.4PL0 Copyright (c) Steve Scherf et al.
# Submitted via: audiograbber 1.80.04
#
DISCID=da0f3f10
DTITLE=Cotton Band, The James - One More Mile
DYEAR=2002
DGENRE=Blues
TTITLE0=One More Mile
TTITLE1=All Walks of Life
TTITLE2=Born in Missouri
TTITLE3=Flip Flop and Fly
TTITLE4=Boogie Thang
TTITLE5=Good Morning Little School Girl
TTITLE6=Baby Don't You Want to Go
TTITLE7=Help Me
TTITLE8=Fanny Mae
TTITLE9=Please Please
TTITLE10=Hot 'n Cold
TTITLE11=Teenie Weenie Bit
TTITLE12=Blow Wind Blow
TTITLE13=How Long Can a Fool Go Wrong
TTITLE14=Got My Mojo Workin'
TTITLE15=Goodbye My Lady
EXTD=
EXTT0=
EXTT1=
EXTT2=
EXTT3=
EXTT4=
EXTT5=
EXTT6=
EXTT7=
EXTT8=
EXTT9=
EXTT10=
EXTT11=
EXTT12=
EXTT13=
EXTT14=
EXTT15=
PLAYORDER=
